<?xml version="1.0" encoding="utf-8" standalone="no"?>
<!DOCTYPE svg PUBLIC "-//W3C//DTD SVG 1.1//EN"
  "http://www.w3.org/Graphics/SVG/1.1/DTD/svg11.dtd">
<svg xmlns:xlink="http://www.w3.org/1999/xlink" width="494.331943pt" height="213.542187pt" viewBox="0 0 494.331943 213.542187" xmlns="http://www.w3.org/2000/svg" version="1.1">
 <metadata>
  <rdf:RDF xmlns:dc="http://purl.org/dc/elements/1.1/" xmlns:cc="http://creativecommons.org/ns#" xmlns:rdf="http://www.w3.org/1999/02/22-rdf-syntax-ns#">
   <cc:Work>
    <dc:type rdf:resource="http://purl.org/dc/dcmitype/StillImage"/>
    <dc:date>2026-07-15T13:32:56.192798</dc:date>
    <dc:format>image/svg+xml</dc:format>
    <dc:creator>
     <cc:Agent>
      <dc:title>Matplotlib v3.10.9, https://matplotlib.org/</dc:title>
     </cc:Agent>
    </dc:creator>
   </cc:Work>
  </rdf:RDF>
 </metadata>
 <defs>
  <style type="text/css">*{stroke-linejoin: round; stroke-linecap: butt}</style>
 </defs>
 <g id="figure_1">
  <g id="patch_1">
   <path d="M 0 213.542187 
L 494.331943 213.542187 
L 494.331943 0 
L 0 0 
z
" style="fill: #ffffff"/>
  </g>
  <g id="axes_1">
   <g id="patch_2">
    <path d="M 44.47308 181.927969 
L 244.814443 181.927969 
L 244.814443 23.751719 
L 44.47308 23.751719 
z
" style="fill: #ffffff"/>
   </g>
   <g id="matplotlib.axis_1">
    <g id="xtick_1">
     <g id="line2d_1">
      <defs>
       <path id="m39675cba54" d="M 0 0 
L 0 3 
" style="stroke: #666666; stroke-width: 0.8"/>
      </defs>
      <g>
       <use xlink:href="#m39675cba54" x="53.579505" y="181.927969" style="fill: #666666; stroke: #666666; stroke-width: 0.8"/>
      </g>
     </g>
     <g id="text_1">
      <text style="font-size: 7px; font-family: 'Arial', 'Helvetica', 'DejaVu Sans', sans-serif; fill: #444444" transform="translate(39.407848 200.547553) rotate(-30)">franc</text>
     </g>
    </g>
    <g id="xtick_2">
     <g id="line2d_2">
      <g>
       <use xlink:href="#m39675cba54" x="126.43091" y="181.927969" style="fill: #666666; stroke: #666666; stroke-width: 0.8"/>
      </g>
     </g>
     <g id="text_2">
      <text style="font-size: 7px; font-family: 'Arial', 'Helvetica', 'DejaVu Sans', sans-serif; fill: #444444" transform="translate(113.937719 199.57849) rotate(-30)">theo</text>
     </g>
    </g>
    <g id="xtick_3">
     <g id="line2d_3">
      <g>
       <use xlink:href="#m39675cba54" x="235.708018" y="181.927969" style="fill: #666666; stroke: #666666; stroke-width: 0.8"/>
      </g>
     </g>
     <g id="text_3">
      <text style="font-size: 7px; font-family: 'Arial', 'Helvetica', 'DejaVu Sans', sans-serif; fill: #444444" transform="translate(219.84937 201.521537) rotate(-30)">mean</text>
     </g>
    </g>
   </g>
   <g id="matplotlib.axis_2">
    <g id="ytick_1">
     <g id="line2d_4">
      <defs>
       <path id="m1143578899" d="M 0 0 
L -3 0 
" style="stroke: #666666; stroke-width: 0.8"/>
      </defs>
      <g>
       <use xlink:href="#m1143578899" x="44.47308" y="173.922271" style="fill: #666666; stroke: #666666; stroke-width: 0.8"/>
      </g>
     </g>
     <g id="text_4">
      <text style="font-size: 7px; font-family: 'Arial', 'Helvetica', 'DejaVu Sans', sans-serif; text-anchor: end; fill: #444444" x="37.97308" y="176.427506" transform="rotate(-0 37.97308 176.427506)">−12</text>
     </g>
    </g>
    <g id="ytick_2">
     <g id="line2d_5">
      <g>
       <use xlink:href="#m1143578899" x="44.47308" y="154.141915" style="fill: #666666; stroke: #666666; stroke-width: 0.8"/>
      </g>
     </g>
     <g id="text_5">
      <text style="font-size: 7px; font-family: 'Arial', 'Helvetica', 'DejaVu Sans', sans-serif; text-anchor: end; fill: #444444" x="37.97308" y="156.647149" transform="rotate(-0 37.97308 156.647149)">−10</text>
     </g>
    </g>
    <g id="ytick_3">
     <g id="line2d_6">
      <g>
       <use xlink:href="#m1143578899" x="44.47308" y="134.361558" style="fill: #666666; stroke: #666666; stroke-width: 0.8"/>
      </g>
     </g>
     <g id="text_6">
      <text style="font-size: 7px; font-family: 'Arial', 'Helvetica', 'DejaVu Sans', sans-serif; text-anchor: end; fill: #444444" x="37.97308" y="136.866793" transform="rotate(-0 37.97308 136.866793)">−8</text>
     </g>
    </g>
    <g id="ytick_4">
     <g id="line2d_7">
      <g>
       <use xlink:href="#m1143578899" x="44.47308" y="114.581201" style="fill: #666666; stroke: #666666; stroke-width: 0.8"/>
      </g>
     </g>
     <g id="text_7">
      <text style="font-size: 7px; font-family: 'Arial', 'Helvetica', 'DejaVu Sans', sans-serif; text-anchor: end; fill: #444444" x="37.97308" y="117.086436" transform="rotate(-0 37.97308 117.086436)">−6</text>
     </g>
    </g>
    <g id="ytick_5">
     <g id="line2d_8">
      <g>
       <use xlink:href="#m1143578899" x="44.47308" y="94.800845" style="fill: #666666; stroke: #666666; stroke-width: 0.8"/>
      </g>
     </g>
     <g id="text_8">
      <text style="font-size: 7px; font-family: 'Arial', 'Helvetica', 'DejaVu Sans', sans-serif; text-anchor: end; fill: #444444" x="37.97308" y="97.306079" transform="rotate(-0 37.97308 97.306079)">−4</text>
     </g>
    </g>
    <g id="ytick_6">
     <g id="line2d_9">
      <g>
       <use xlink:href="#m1143578899" x="44.47308" y="75.020488" style="fill: #666666; stroke: #666666; stroke-width: 0.8"/>
      </g>
     </g>
     <g id="text_9">
      <text style="font-size: 7px; font-family: 'Arial', 'Helvetica', 'DejaVu Sans', sans-serif; text-anchor: end; fill: #444444" x="37.97308" y="77.525722" transform="rotate(-0 37.97308 77.525722)">−2</text>
     </g>
    </g>
    <g id="ytick_7">
     <g id="line2d_10">
      <g>
       <use xlink:href="#m1143578899" x="44.47308" y="55.240131" style="fill: #666666; stroke: #666666; stroke-width: 0.8"/>
      </g>
     </g>
     <g id="text_10">
      <text style="font-size: 7px; font-family: 'Arial', 'Helvetica', 'DejaVu Sans', sans-serif; text-anchor: end; fill: #444444" x="37.97308" y="57.745366" transform="rotate(-0 37.97308 57.745366)">0</text>
     </g>
    </g>
    <g id="ytick_8">
     <g id="line2d_11">
      <g>
       <use xlink:href="#m1143578899" x="44.47308" y="35.459775" style="fill: #666666; stroke: #666666; stroke-width: 0.8"/>
      </g>
     </g>
     <g id="text_11">
      <text style="font-size: 7px; font-family: 'Arial', 'Helvetica', 'DejaVu Sans', sans-serif; text-anchor: end; fill: #444444" x="37.97308" y="37.965009" transform="rotate(-0 37.97308 37.965009)">2</text>
     </g>
    </g>
    <g id="text_12">
     <!-- $\Delta_{coll}$ (cm) -->
     <g style="fill: #333333" transform="translate(20.33933 119.639844) rotate(-90)">
      <text>
       <tspan x="0" y="-0.171875" style="font-size: 8px; font-family: 'DejaVu Sans'; fill: #333333">Δ</tspan>
       <tspan x="5.549219" y="1.140625" style="font-style: oblique; font-size: 5.6px; font-family: 'DejaVu Sans'; fill: #333333">c</tspan>
       <tspan x="8.628125" y="1.140625" style="font-style: oblique; font-size: 5.6px; font-family: 'DejaVu Sans'; fill: #333333">o</tspan>
       <tspan x="12.054297" y="1.140625" style="font-style: oblique; font-size: 5.6px; font-family: 'DejaVu Sans'; fill: #333333">l</tspan>
       <tspan x="13.610156" y="1.140625" style="font-style: oblique; font-size: 5.6px; font-family: 'DejaVu Sans'; fill: #333333">l</tspan>
       <tspan x="15.384766" y="-0.171875" style="font-size: 8px; font-family: 'Arial'; fill: #333333"> </tspan>
       <tspan x="17.607422" y="-0.171875" style="font-size: 8px; font-family: 'Arial'; fill: #333333">(</tspan>
       <tspan x="20.271484" y="-0.171875" style="font-size: 8px; font-family: 'Arial'; fill: #333333">c</tspan>
       <tspan x="24.271484" y="-0.171875" style="font-size: 8px; font-family: 'Arial'; fill: #333333">m</tspan>
       <tspan x="30.935547" y="-0.171875" style="font-size: 8px; font-family: 'Arial'; fill: #333333">)</tspan>
      </text>
     </g>
    </g>
   </g>
   <g id="line2d_12">
    <path d="M 44.47308 55.240131 
L 244.814443 55.240131 
" clip-path="url(#pedd8750586)" style="fill: none; stroke-dasharray: 2.96,1.28; stroke-dashoffset: 0; stroke: #808080; stroke-width: 0.8"/>
   </g>
   <g id="patch_3">
    <path d="M 44.47308 181.927969 
L 44.47308 23.751719 
" style="fill: none; stroke: #b0b0b0; stroke-width: 0.8; stroke-linejoin: miter; stroke-linecap: square"/>
   </g>
   <g id="patch_4">
    <path d="M 44.47308 181.927969 
L 244.814443 181.927969 
" style="fill: none; stroke: #b0b0b0; stroke-width: 0.8; stroke-linejoin: miter; stroke-linecap: square"/>
   </g>
   <g id="PathCollection_1">
    <defs>
     <path id="m64c40a8109" d="M 0 3.162278 
C 0.838646 3.162278 1.643056 2.82908 2.236068 2.236068 
C 2.82908 1.643056 3.162278 0.838646 3.162278 0 
C 3.162278 -0.838646 2.82908 -1.643056 2.236068 -2.236068 
C 1.643056 -2.82908 0.838646 -3.162278 0 -3.162278 
C -0.838646 -3.162278 -1.643056 -2.82908 -2.236068 -2.236068 
C -2.82908 -1.643056 -3.162278 -0.838646 -3.162278 0 
C -3.162278 0.838646 -2.82908 1.643056 -2.236068 2.236068 
C -1.643056 2.82908 -0.838646 3.162278 0 3.162278 
z
" style="stroke: #222222; stroke-width: 0.6"/>
    </defs>
    <g clip-path="url(#pedd8750586)">
     <use xlink:href="#m64c40a8109" x="53.579505" y="30.941548" style="fill: #c9c9c9; stroke: #222222; stroke-width: 0.6"/>
     <use xlink:href="#m64c40a8109" x="126.43091" y="174.738139" style="fill: #c9c9c9; stroke: #222222; stroke-width: 0.6"/>
    </g>
   </g>
   <g id="text_13">
    <text style="font-size: 6px; font-family: 'Arial', 'Helvetica', 'DejaVu Sans', sans-serif; text-anchor: start" x="53.579505" y="32.492642" transform="rotate(-0 53.579505 32.492642)"> franc</text>
   </g>
   <g id="text_14">
    <text style="font-size: 6px; font-family: 'Arial', 'Helvetica', 'DejaVu Sans', sans-serif; text-anchor: start" x="126.43091" y="176.289233" transform="rotate(-0 126.43091 176.289233)"> theo</text>
   </g>
   <g id="LineCollection_1">
    <path d="M 235.708018 174.738139 
L 235.708018 30.941548 
" clip-path="url(#pedd8750586)" style="fill: none; stroke: #222222; stroke-width: 1.4"/>
   </g>
   <g id="line2d_13">
    <defs>
     <path id="m51841175f8" d="M 4 0 
L -4 -0 
" style="stroke: #222222"/>
    </defs>
    <g clip-path="url(#pedd8750586)">
     <use xlink:href="#m51841175f8" x="235.708018" y="174.738139" style="fill: #222222; stroke: #222222"/>
    </g>
   </g>
   <g id="line2d_14">
    <g clip-path="url(#pedd8750586)">
     <use xlink:href="#m51841175f8" x="235.708018" y="30.941548" style="fill: #222222; stroke: #222222"/>
    </g>
   </g>
   <g id="text_15">
    <text style="font-weight: 700; font-size: 10px; font-family: 'Arial', 'Helvetica', 'DejaVu Sans', sans-serif; text-anchor: end" x="14.421875" y="18.255431" transform="rotate(-0 14.421875 18.255431)">A</text>
   </g>
   <g id="text_16">
    <text style="font-weight: 700; font-size: 9px; font-family: 'Arial', 'Helvetica', 'DejaVu Sans', sans-serif; text-anchor: start; fill: #222222" x="44.47308" y="13.751719" transform="rotate(-0 44.47308 13.751719)">Speed-induced boundary shift</text>
   </g>
   <g id="line2d_15">
    <defs>
     <path id="m6f216d64e9" d="M 0 3 
C 0.795609 3 1.55874 2.683901 2.12132 2.12132 
C 2.683901 1.55874 3 0.795609 3 0 
C 3 -0.795609 2.683901 -1.55874 2.12132 -2.12132 
C 1.55874 -2.683901 0.795609 -3 0 -3 
C -0.795609 -3 -1.55874 -2.683901 -2.12132 -2.12132 
C -2.683901 -1.55874 -3 -0.795609 -3 0 
C -3 0.795609 -2.683901 1.55874 -2.12132 2.12132 
C -1.55874 2.683901 -0.795609 3 0 3 
z
" style="stroke: #222222"/>
    </defs>
    <g clip-path="url(#pedd8750586)">
     <use xlink:href="#m6f216d64e9" x="235.708018" y="102.839844" style="fill: #222222; stroke: #222222"/>
    </g>
   </g>
   <g id="legend_1">
    <g id="LineCollection_2">
     <path d="M 57.77308 175.204687 
L 57.77308 168.204687 
" style="fill: none; stroke: #222222; stroke-width: 1.4"/>
    </g>
    <g id="line2d_16">
     <g>
      <use xlink:href="#m51841175f8" x="57.77308" y="175.204687" style="fill: #222222; stroke: #222222"/>
     </g>
    </g>
    <g id="line2d_17">
     <g>
      <use xlink:href="#m51841175f8" x="57.77308" y="168.204687" style="fill: #222222; stroke: #222222"/>
     </g>
    </g>
    <g id="line2d_18"/>
    <g id="line2d_19">
     <g>
      <use xlink:href="#m6f216d64e9" x="57.77308" y="171.704687" style="fill: #222222; stroke: #222222"/>
     </g>
    </g>
    <g id="text_17">
     <text style="font-size: 7px; font-family: 'Arial', 'Helvetica', 'DejaVu Sans', sans-serif; text-anchor: start" x="70.37308" y="174.154687" transform="rotate(-0 70.37308 174.154687)">mean (95% CI)</text>
    </g>
   </g>
  </g>
  <g id="axes_2">
   <g id="patch_5">
    <path d="M 286.79058 181.927969 
L 487.131943 181.927969 
L 487.131943 23.751719 
L 286.79058 23.751719 
z
" style="fill: #ffffff"/>
   </g>
   <g id="matplotlib.axis_3">
    <g id="xtick_4">
     <g id="line2d_20">
      <g>
       <use xlink:href="#m39675cba54" x="297.930143" y="181.927969" style="fill: #666666; stroke: #666666; stroke-width: 0.8"/>
      </g>
     </g>
     <g id="text_18">
      <text style="font-size: 7px; font-family: 'Arial', 'Helvetica', 'DejaVu Sans', sans-serif; text-anchor: middle; fill: #444444" x="297.930143" y="193.438437" transform="rotate(-0 297.930143 193.438437)">−20</text>
     </g>
    </g>
    <g id="xtick_5">
     <g id="line2d_21">
      <g>
       <use xlink:href="#m39675cba54" x="338.592906" y="181.927969" style="fill: #666666; stroke: #666666; stroke-width: 0.8"/>
      </g>
     </g>
     <g id="text_19">
      <text style="font-size: 7px; font-family: 'Arial', 'Helvetica', 'DejaVu Sans', sans-serif; text-anchor: middle; fill: #444444" x="338.592906" y="193.438437" transform="rotate(-0 338.592906 193.438437)">0</text>
     </g>
    </g>
    <g id="xtick_6">
     <g id="line2d_22">
      <g>
       <use xlink:href="#m39675cba54" x="379.255668" y="181.927969" style="fill: #666666; stroke: #666666; stroke-width: 0.8"/>
      </g>
     </g>
     <g id="text_20">
      <text style="font-size: 7px; font-family: 'Arial', 'Helvetica', 'DejaVu Sans', sans-serif; text-anchor: middle; fill: #444444" x="379.255668" y="193.438437" transform="rotate(-0 379.255668 193.438437)">20</text>
     </g>
    </g>
    <g id="xtick_7">
     <g id="line2d_23">
      <g>
       <use xlink:href="#m39675cba54" x="419.91843" y="181.927969" style="fill: #666666; stroke: #666666; stroke-width: 0.8"/>
      </g>
     </g>
     <g id="text_21">
      <text style="font-size: 7px; font-family: 'Arial', 'Helvetica', 'DejaVu Sans', sans-serif; text-anchor: middle; fill: #444444" x="419.91843" y="193.438437" transform="rotate(-0 419.91843 193.438437)">40</text>
     </g>
    </g>
    <g id="xtick_8">
     <g id="line2d_24">
      <g>
       <use xlink:href="#m39675cba54" x="460.581193" y="181.927969" style="fill: #666666; stroke: #666666; stroke-width: 0.8"/>
      </g>
     </g>
     <g id="text_22">
      <text style="font-size: 7px; font-family: 'Arial', 'Helvetica', 'DejaVu Sans', sans-serif; text-anchor: middle; fill: #444444" x="460.581193" y="193.438437" transform="rotate(-0 460.581193 193.438437)">60</text>
     </g>
    </g>
    <g id="text_23">
     <text style="font-size: 8px; font-family: 'Arial', 'Helvetica', 'DejaVu Sans', sans-serif; text-anchor: middle; fill: #333333" x="386.961261" y="204.658437" transform="rotate(-0 386.961261 204.658437)">Offset from shoulder edge (cm)</text>
    </g>
   </g>
   <g id="matplotlib.axis_4">
    <g id="ytick_9">
     <g id="line2d_25">
      <g>
       <use xlink:href="#m1143578899" x="286.79058" y="178.886118" style="fill: #666666; stroke: #666666; stroke-width: 0.8"/>
      </g>
     </g>
     <g id="text_24">
      <text style="font-size: 7px; font-family: 'Arial', 'Helvetica', 'DejaVu Sans', sans-serif; text-anchor: end; fill: #444444" x="280.29058" y="181.391352" transform="rotate(-0 280.29058 181.391352)">0.0</text>
     </g>
    </g>
    <g id="ytick_10">
     <g id="line2d_26">
      <g>
       <use xlink:href="#m1143578899" x="286.79058" y="148.467608" style="fill: #666666; stroke: #666666; stroke-width: 0.8"/>
      </g>
     </g>
     <g id="text_25">
      <text style="font-size: 7px; font-family: 'Arial', 'Helvetica', 'DejaVu Sans', sans-serif; text-anchor: end; fill: #444444" x="280.29058" y="150.972843" transform="rotate(-0 280.29058 150.972843)">0.2</text>
     </g>
    </g>
    <g id="ytick_11">
     <g id="line2d_27">
      <g>
       <use xlink:href="#m1143578899" x="286.79058" y="118.049099" style="fill: #666666; stroke: #666666; stroke-width: 0.8"/>
      </g>
     </g>
     <g id="text_26">
      <text style="font-size: 7px; font-family: 'Arial', 'Helvetica', 'DejaVu Sans', sans-serif; text-anchor: end; fill: #444444" x="280.29058" y="120.554333" transform="rotate(-0 280.29058 120.554333)">0.4</text>
     </g>
    </g>
    <g id="ytick_12">
     <g id="line2d_28">
      <g>
       <use xlink:href="#m1143578899" x="286.79058" y="87.630589" style="fill: #666666; stroke: #666666; stroke-width: 0.8"/>
      </g>
     </g>
     <g id="text_27">
      <text style="font-size: 7px; font-family: 'Arial', 'Helvetica', 'DejaVu Sans', sans-serif; text-anchor: end; fill: #444444" x="280.29058" y="90.135823" transform="rotate(-0 280.29058 90.135823)">0.6</text>
     </g>
    </g>
    <g id="ytick_13">
     <g id="line2d_29">
      <g>
       <use xlink:href="#m1143578899" x="286.79058" y="57.212079" style="fill: #666666; stroke: #666666; stroke-width: 0.8"/>
      </g>
     </g>
     <g id="text_28">
      <text style="font-size: 7px; font-family: 'Arial', 'Helvetica', 'DejaVu Sans', sans-serif; text-anchor: end; fill: #444444" x="280.29058" y="59.717314" transform="rotate(-0 280.29058 59.717314)">0.8</text>
     </g>
    </g>
    <g id="ytick_14">
     <g id="line2d_30">
      <g>
       <use xlink:href="#m1143578899" x="286.79058" y="26.79357" style="fill: #666666; stroke: #666666; stroke-width: 0.8"/>
      </g>
     </g>
     <g id="text_29">
      <text style="font-size: 7px; font-family: 'Arial', 'Helvetica', 'DejaVu Sans', sans-serif; text-anchor: end; fill: #444444" x="280.29058" y="29.298804" transform="rotate(-0 280.29058 29.298804)">1.0</text>
     </g>
    </g>
    <g id="text_30">
     <text style="font-size: 8px; font-family: 'Arial', 'Helvetica', 'DejaVu Sans', sans-serif; text-anchor: middle; fill: #333333" x="264.87683" y="102.839844" transform="rotate(-90 264.87683 102.839844)">P(respond HIT)</text>
    </g>
   </g>
   <g id="line2d_31">
    <path d="M 340.901482 178.886118 
L 340.901482 102.839844 
" clip-path="url(#p4ecc65a942)" style="fill: none; stroke-dasharray: 1,1.65; stroke-dashoffset: 0; stroke: #505050"/>
   </g>
   <g id="line2d_32">
    <path d="M 332.085181 178.886118 
L 332.085181 102.839844 
" clip-path="url(#p4ecc65a942)" style="fill: none; stroke-dasharray: 1,1.65; stroke-dashoffset: 0; stroke: #c94148"/>
   </g>
   <g id="line2d_33">
    <path d="M 295.897005 53.294337 
L 299.55788 56.178987 
L 303.218754 59.296373 
L 307.794848 63.522083 
L 312.370941 68.107387 
L 316.947034 73.035679 
L 321.523128 78.278636 
L 327.014439 84.927927 
L 333.42097 93.061082 
L 357.216655 123.735237 
L 362.707967 130.220033 
L 367.28406 135.300287 
L 371.860154 140.049352 
L 376.436247 144.445207 
L 381.01234 148.477099 
L 384.673215 151.439756 
L 388.334089 154.172393 
L 391.994964 156.681428 
L 396.571057 159.516694 
L 401.147151 162.036893 
L 405.723244 164.265306 
L 410.299337 166.226586 
L 414.87543 167.945711 
L 419.451524 169.447188 
L 424.942836 170.99459 
L 430.434147 172.300026 
L 436.840678 173.562686 
L 443.247209 174.590419 
L 450.568958 175.529855 
L 458.805926 176.34768 
L 467.958112 177.027779 
L 478.025518 177.569274 
L 478.025518 177.569274 
" clip-path="url(#p4ecc65a942)" style="fill: none; stroke: #595959; stroke-width: 1.8; stroke-linecap: round"/>
   </g>
   <g id="line2d_34">
    <path d="M 295.897005 60.636381 
L 300.473098 64.980677 
L 305.049192 69.680382 
L 309.625285 74.715143 
L 314.201378 80.05271 
L 319.69269 86.794477 
L 327.014439 96.191325 
L 345.318813 119.938368 
L 350.810124 126.62895 
L 355.386218 131.913825 
L 359.962311 136.889061 
L 364.538404 141.524621 
L 369.114498 145.802272 
L 373.690591 149.714687 
L 377.351465 152.582833 
L 381.01234 155.223268 
L 384.673215 157.643406 
L 389.249308 160.373346 
L 393.825401 162.795597 
L 398.401495 164.934019 
L 402.977588 166.813473 
L 407.553681 168.458861 
L 412.129774 169.894399 
L 417.621086 171.372348 
L 423.112398 172.61801 
L 429.518929 173.821829 
L 435.925459 174.800925 
L 443.247209 175.695319 
L 451.484177 176.473479 
L 460.636363 177.120272 
L 471.618987 177.673695 
L 478.025518 177.913025 
L 478.025518 177.913025 
" clip-path="url(#p4ecc65a942)" style="fill: none; stroke: #df4850; stroke-width: 1.8; stroke-linecap: round"/>
   </g>
   <g id="line2d_35">
    <path d="M 286.79058 102.839844 
L 487.131943 102.839844 
" clip-path="url(#p4ecc65a942)" style="fill: none; stroke-dasharray: 2.96,1.28; stroke-dashoffset: 0; stroke: #808080; stroke-width: 0.8"/>
   </g>
   <g id="patch_6">
    <path d="M 286.79058 181.927969 
L 286.79058 23.751719 
" style="fill: none; stroke: #b0b0b0; stroke-width: 0.8; stroke-linejoin: miter; stroke-linecap: square"/>
   </g>
   <g id="patch_7">
    <path d="M 286.79058 181.927969 
L 487.131943 181.927969 
" style="fill: none; stroke: #b0b0b0; stroke-width: 0.8; stroke-linejoin: miter; stroke-linecap: square"/>
   </g>
   <g id="PathCollection_2">
    <path d="M 307.280037 64.731321 
C 307.929649 64.731321 308.552743 64.473227 309.012088 64.013882 
C 309.471433 63.554536 309.729527 62.931443 309.729527 62.281831 
C 309.729527 61.632219 309.471433 61.009125 309.012088 60.54978 
C 308.552743 60.090435 307.929649 59.832341 307.280037 59.832341 
C 306.630425 59.832341 306.007332 60.090435 305.547986 60.54978 
C 305.088641 61.009125 304.830547 61.632219 304.830547 62.281831 
C 304.830547 62.931443 305.088641 63.554536 305.547986 64.013882 
C 306.007332 64.473227 306.630425 64.731321 307.280037 64.731321 
z
" clip-path="url(#p4ecc65a942)" style="fill: #505050; fill-opacity: 0.55"/>
    <path d="M 352.812165 180.435311 
C 353.223016 180.435311 353.617095 180.272078 353.90761 179.981563 
C 354.198126 179.691047 354.361359 179.296969 354.361359 178.886118 
C 354.361359 178.475267 354.198126 178.081188 353.90761 177.790673 
C 353.617095 177.500157 353.223016 177.336924 352.812165 177.336924 
C 352.401314 177.336924 352.007236 177.500157 351.71672 177.790673 
C 351.426205 178.081188 351.262972 178.475267 351.262972 178.886118 
C 351.262972 179.296969 351.426205 179.691047 351.71672 179.981563 
C 352.007236 180.272078 352.401314 180.435311 352.812165 180.435311 
z
" clip-path="url(#p4ecc65a942)" style="fill: #505050; fill-opacity: 0.55"/>
    <path d="M 375.578229 133.540174 
C 376.289844 133.540174 376.972408 133.257446 377.475596 132.754259 
C 377.978783 132.251071 378.261511 131.568507 378.261511 130.856892 
C 378.261511 130.145277 377.978783 129.462713 377.475596 128.959525 
C 376.972408 128.456338 376.289844 128.173611 375.578229 128.173611 
C 374.866615 128.173611 374.18405 128.456338 373.680863 128.959525 
C 373.177675 129.462713 372.894948 130.145277 372.894948 130.856892 
C 372.894948 131.568507 373.177675 132.251071 373.680863 132.754259 
C 374.18405 133.257446 374.866615 133.540174 375.578229 133.540174 
z
" clip-path="url(#p4ecc65a942)" style="fill: #505050; fill-opacity: 0.55"/>
    <path d="M 398.344293 160.992275 
C 399.099075 160.992275 399.823044 160.692397 400.356755 160.158686 
C 400.890466 159.624975 401.190343 158.901006 401.190343 158.146225 
C 401.190343 157.391444 400.890466 156.667475 400.356755 156.133764 
C 399.823044 155.600053 399.099075 155.300175 398.344293 155.300175 
C 397.589512 155.300175 396.865543 155.600053 396.331832 156.133764 
C 395.798121 156.667475 395.498243 157.391444 395.498243 158.146225 
C 395.498243 158.901006 395.798121 159.624975 396.331832 160.158686 
C 396.865543 160.692397 397.589512 160.992275 398.344293 160.992275 
z
" clip-path="url(#p4ecc65a942)" style="fill: #505050; fill-opacity: 0.55"/>
    <path d="M 421.110357 180.898579 
C 421.644068 180.898579 422.155992 180.686533 422.533382 180.309143 
C 422.910773 179.931752 423.122819 179.419829 423.122819 178.886118 
C 423.122819 178.352407 422.910773 177.840483 422.533382 177.463093 
C 422.155992 177.085702 421.644068 176.873657 421.110357 176.873657 
C 420.576646 176.873657 420.064723 177.085702 419.687332 177.463093 
C 419.309942 177.840483 419.097896 178.352407 419.097896 178.886118 
C 419.097896 179.419829 419.309942 179.931752 419.687332 180.309143 
C 420.064723 180.686533 420.576646 180.898579 421.110357 180.898579 
z
" clip-path="url(#p4ecc65a942)" style="fill: #505050; fill-opacity: 0.55"/>
    <path d="M 443.876421 170.683106 
C 444.389985 170.683106 444.882584 170.479065 445.245728 170.115921 
C 445.608872 169.752777 445.812913 169.260178 445.812913 168.746615 
C 445.812913 168.233051 445.608872 167.740452 445.245728 167.377308 
C 444.882584 167.014164 444.389985 166.810123 443.876421 166.810123 
C 443.362858 166.810123 442.870259 167.014164 442.507115 167.377308 
C 442.143971 167.740452 441.93993 168.233051 441.93993 168.746615 
C 441.93993 169.260178 442.143971 169.752777 442.507115 170.115921 
C 442.870259 170.479065 443.362858 170.683106 443.876421 170.683106 
z
" clip-path="url(#p4ecc65a942)" style="fill: #505050; fill-opacity: 0.55"/>
    <path d="M 466.642486 180.743535 
C 467.135078 180.743535 467.607562 180.547826 467.955878 180.19951 
C 468.304194 179.851195 468.499903 179.378711 468.499903 178.886118 
C 468.499903 178.393525 468.304194 177.921041 467.955878 177.572725 
C 467.607562 177.224409 467.135078 177.0287 466.642486 177.0287 
C 466.149893 177.0287 465.677409 177.224409 465.329093 177.572725 
C 464.980777 177.921041 464.785068 178.393525 464.785068 178.886118 
C 464.785068 179.378711 464.980777 179.851195 465.329093 180.19951 
C 465.677409 180.547826 466.149893 180.743535 466.642486 180.743535 
z
" clip-path="url(#p4ecc65a942)" style="fill: #505050; fill-opacity: 0.55"/>
   </g>
   <g id="PathCollection_3">
    <path d="M 307.280037 54.591817 
C 307.929649 54.591817 308.552743 54.333724 309.012088 53.874379 
C 309.471433 53.415033 309.729527 52.79194 309.729527 52.142328 
C 309.729527 51.492715 309.471433 50.869622 309.012088 50.410277 
C 308.552743 49.950932 307.929649 49.692838 307.280037 49.692838 
C 306.630425 49.692838 306.007332 49.950932 305.547986 50.410277 
C 305.088641 50.869622 304.830547 51.492715 304.830547 52.142328 
C 304.830547 52.79194 305.088641 53.415033 305.547986 53.874379 
C 306.007332 54.333724 306.630425 54.591817 307.280037 54.591817 
z
" clip-path="url(#p4ecc65a942)" style="fill: #c94148; fill-opacity: 0.55"/>
    <path d="M 330.046101 28.078093 
C 330.386761 28.078093 330.713514 27.942747 330.954396 27.701865 
C 331.195279 27.460982 331.330624 27.134229 331.330624 26.79357 
C 331.330624 26.45291 331.195279 26.126157 330.954396 25.885275 
C 330.713514 25.644392 330.386761 25.509046 330.046101 25.509046 
C 329.705442 25.509046 329.378689 25.644392 329.137806 25.885275 
C 328.896923 26.126157 328.761578 26.45291 328.761578 26.79357 
C 328.761578 27.134229 328.896923 27.460982 329.137806 27.701865 
C 329.378689 27.942747 329.705442 28.078093 330.046101 28.078093 
z
" clip-path="url(#p4ecc65a942)" style="fill: #c94148; fill-opacity: 0.55"/>
    <path d="M 352.812165 145.645255 
C 353.304758 145.645255 353.777242 145.449546 354.125558 145.10123 
C 354.473874 144.752914 354.669583 144.28043 354.669583 143.787837 
C 354.669583 143.295245 354.473874 142.822761 354.125558 142.474445 
C 353.777242 142.126129 353.304758 141.93042 352.812165 141.93042 
C 352.319572 141.93042 351.847089 142.126129 351.498773 142.474445 
C 351.150457 142.822761 350.954748 143.295245 350.954748 143.787837 
C 350.954748 144.28043 351.150457 144.752914 351.498773 145.10123 
C 351.847089 145.449546 352.319572 145.645255 352.812165 145.645255 
z
" clip-path="url(#p4ecc65a942)" style="fill: #c94148; fill-opacity: 0.55"/>
    <path d="M 375.578229 170.815212 
C 376.318901 170.815212 377.029337 170.52094 377.553071 169.997206 
C 378.076805 169.473472 378.371077 168.763036 378.371077 168.022364 
C 378.371077 167.281692 378.076805 166.571257 377.553071 166.047523 
C 377.029337 165.523788 376.318901 165.229516 375.578229 165.229516 
C 374.837557 165.229516 374.127122 165.523788 373.603388 166.047523 
C 373.079653 166.571257 372.785381 167.281692 372.785381 168.022364 
C 372.785381 168.763036 373.079653 169.473472 373.603388 169.997206 
C 374.127122 170.52094 374.837557 170.815212 375.578229 170.815212 
z
" clip-path="url(#p4ecc65a942)" style="fill: #c94148; fill-opacity: 0.55"/>
    <path d="M 398.344293 169.562093 
C 399.055908 169.562093 399.738472 169.279365 400.24166 168.776178 
C 400.744847 168.27299 401.027575 167.590426 401.027575 166.878811 
C 401.027575 166.167197 400.744847 165.484632 400.24166 164.981445 
C 399.738472 164.478257 399.055908 164.19553 398.344293 164.19553 
C 397.632679 164.19553 396.950114 164.478257 396.446927 164.981445 
C 395.943739 165.484632 395.661012 166.167197 395.661012 166.878811 
C 395.661012 167.590426 395.943739 168.27299 396.446927 168.776178 
C 396.950114 169.279365 397.632679 169.562093 398.344293 169.562093 
z
" clip-path="url(#p4ecc65a942)" style="fill: #c94148; fill-opacity: 0.55"/>
    <path d="M 421.110357 180.86096 
C 421.634092 180.86096 422.136445 180.652878 422.506781 180.282542 
C 422.877117 179.912206 423.085199 179.409852 423.085199 178.886118 
C 423.085199 178.362384 422.877117 177.86003 422.506781 177.489694 
C 422.136445 177.119358 421.634092 176.911276 421.110357 176.911276 
C 420.586623 176.911276 420.084269 177.119358 419.713933 177.489694 
C 419.343597 177.86003 419.135516 178.362384 419.135516 178.886118 
C 419.135516 179.409852 419.343597 179.912206 419.713933 180.282542 
C 420.084269 180.652878 420.586623 180.86096 421.110357 180.86096 
z
" clip-path="url(#p4ecc65a942)" style="fill: #c94148; fill-opacity: 0.55"/>
    <path d="M 443.876421 180.529285 
C 444.312195 180.529285 444.730178 180.356151 445.038316 180.048013 
C 445.346455 179.739875 445.519589 179.321891 445.519589 178.886118 
C 445.519589 178.450345 445.346455 178.032361 445.038316 177.724223 
C 444.730178 177.416085 444.312195 177.24295 443.876421 177.24295 
C 443.440648 177.24295 443.022665 177.416085 442.714526 177.724223 
C 442.406388 178.032361 442.233254 178.450345 442.233254 178.886118 
C 442.233254 179.321891 442.406388 179.739875 442.714526 180.048013 
C 443.022665 180.356151 443.440648 180.529285 443.876421 180.529285 
z
" clip-path="url(#p4ecc65a942)" style="fill: #c94148; fill-opacity: 0.55"/>
    <path d="M 466.642486 145.645255 
C 467.135078 145.645255 467.607562 145.449546 467.955878 145.10123 
C 468.304194 144.752914 468.499903 144.28043 468.499903 143.787837 
C 468.499903 143.295245 468.304194 142.822761 467.955878 142.474445 
C 467.607562 142.126129 467.135078 141.93042 466.642486 141.93042 
C 466.149893 141.93042 465.677409 142.126129 465.329093 142.474445 
C 464.980777 142.822761 464.785068 143.295245 464.785068 143.787837 
C 464.785068 144.28043 464.980777 144.752914 465.329093 145.10123 
C 465.677409 145.449546 466.149893 145.645255 466.642486 145.645255 
z
" clip-path="url(#p4ecc65a942)" style="fill: #c94148; fill-opacity: 0.55"/>
   </g>
   <g id="patch_8">
    <path d="M 337.893503 102.839844 
Q 336.492347 102.839844 335.09119 102.839844 
" style="fill: none; stroke: #222222; stroke-width: 0.9; stroke-linecap: round"/>
    <path d="M 334.693503 101.239844 
L 337.893503 102.839844 
L 334.693503 104.439844 
" style="fill: none; stroke: #222222; stroke-width: 0.9; stroke-linecap: round"/>
    <path d="M 338.29119 104.439844 
L 335.09119 102.839844 
L 338.29119 101.239844 
" style="fill: none; stroke: #222222; stroke-width: 0.9; stroke-linecap: round"/>
   </g>
   <g id="text_31">
    <!-- $\Delta_{coll}$ = -4.3 cm -->
    <g style="fill: #222222" transform="translate(314.093331 95.995679)">
     <text>
      <tspan x="0" y="-0.890625" style="font-size: 7px; font-family: 'DejaVu Sans'; fill: #222222">Δ</tspan>
      <tspan x="4.855566" y="0.257812" style="font-style: oblique; font-size: 4.9px; font-family: 'DejaVu Sans'; fill: #222222">c</tspan>
      <tspan x="7.549609" y="0.257812" style="font-style: oblique; font-size: 4.9px; font-family: 'DejaVu Sans'; fill: #222222">o</tspan>
      <tspan x="10.54751" y="0.257812" style="font-style: oblique; font-size: 4.9px; font-family: 'DejaVu Sans'; fill: #222222">l</tspan>
      <tspan x="11.908887" y="0.257812" style="font-style: oblique; font-size: 4.9px; font-family: 'DejaVu Sans'; fill: #222222">l</tspan>
      <tspan x="13.46167" y="-0.890625" style="font-size: 7px; font-family: 'Arial'; fill: #222222"> </tspan>
      <tspan x="15.406494" y="-0.890625" style="font-size: 7px; font-family: 'Arial'; fill: #222222">=</tspan>
      <tspan x="19.494385" y="-0.890625" style="font-size: 7px; font-family: 'Arial'; fill: #222222"> </tspan>
      <tspan x="21.439209" y="-0.890625" style="font-size: 7px; font-family: 'Arial'; fill: #222222">-</tspan>
      <tspan x="23.770264" y="-0.890625" style="font-size: 7px; font-family: 'Arial'; fill: #222222">4</tspan>
      <tspan x="27.66333" y="-0.890625" style="font-size: 7px; font-family: 'Arial'; fill: #222222">.</tspan>
      <tspan x="29.608154" y="-0.890625" style="font-size: 7px; font-family: 'Arial'; fill: #222222">3</tspan>
      <tspan x="33.501221" y="-0.890625" style="font-size: 7px; font-family: 'Arial'; fill: #222222"> </tspan>
      <tspan x="35.446045" y="-0.890625" style="font-size: 7px; font-family: 'Arial'; fill: #222222">c</tspan>
      <tspan x="38.946045" y="-0.890625" style="font-size: 7px; font-family: 'Arial'; fill: #222222">m</tspan>
     </text>
    </g>
   </g>
   <g id="text_32">
    <text style="font-weight: 700; font-size: 10px; font-family: 'Arial', 'Helvetica', 'DejaVu Sans', sans-serif; text-anchor: end" x="256.739375" y="18.255431" transform="rotate(-0 256.739375 18.255431)">B</text>
   </g>
   <g id="text_33">
    <text style="font-weight: 700; font-size: 9px; font-family: 'Arial', 'Helvetica', 'DejaVu Sans', sans-serif; text-anchor: start; fill: #222222" x="286.79058" y="13.751719" transform="rotate(-0 286.79058 13.751719)">Collision psychometric</text>
   </g>
   <g id="legend_2">
    <g id="line2d_36">
     <path d="M 447.228662 32.612187 
L 454.228662 32.612187 
L 461.228662 32.612187 
" style="fill: none; stroke: #595959; stroke-width: 1.8; stroke-linecap: round"/>
    </g>
    <g id="text_34">
     <text style="font-size: 7px; font-family: 'Arial', 'Helvetica', 'DejaVu Sans', sans-serif; text-anchor: start" x="466.828662" y="35.062187" transform="rotate(-0 466.828662 35.062187)">slow</text>
    </g>
    <g id="line2d_37">
     <path d="M 447.228662 42.513906 
L 454.228662 42.513906 
L 461.228662 42.513906 
" style="fill: none; stroke: #df4850; stroke-width: 1.8; stroke-linecap: round"/>
    </g>
    <g id="text_35">
     <text style="font-size: 7px; font-family: 'Arial', 'Helvetica', 'DejaVu Sans', sans-serif; text-anchor: start" x="466.828662" y="44.963906" transform="rotate(-0 466.828662 44.963906)">fast</text>
    </g>
   </g>
  </g>
 </g>
 <defs>
  <clipPath id="pedd8750586">
   <rect x="44.47308" y="23.751719" width="200.341364" height="158.17625"/>
  </clipPath>
  <clipPath id="p4ecc65a942">
   <rect x="286.79058" y="23.751719" width="200.341364" height="158.17625"/>
  </clipPath>
 </defs>
</svg>
